<?xml version="1.0" standalone="no"?>
<!DOCTYPE svg PUBLIC "-//W3C//DTD SVG 1.1//EN" "http://www.w3.org/Graphics/SVG/1.1/DTD/svg11.dtd" >
<!--
2013-9-30: Created.
-->
<svg>
<metadata>
Created by iconfont
</metadata>
<defs>

<font id="iconfont" horiz-adv-x="1024" >
  <font-face
    font-family="iconfont"
    font-weight="500"
    font-stretch="normal"
    units-per-em="1024"
    ascent="896"
    descent="-128"
  />
    <missing-glyph />
    
    <glyph glyph-name="huoban" unicode="&#58898;" d="M620.48855298 825.08502039c-142.49383082 0-258.01008091-116.93452606-258.01008091-261.17112974 0-81.57364734 37.73444593-153.52060251 95.62803-201.42054299C318.86874184 299.51903798 221.76683684 158.38586193000003 221.76683684-5.910811849999959l0.56912985 0c0-0.30629944-0.15163334-0.57519532-0.15163336-0.92193005 0-27.92074002 3.98087908-50.62226263 31.60138515-50.62226263 25.24693984 0 26.6642062 23.89336015 26.66420621 50.62125204 0 0.34572414 0.15163334 0.61462004 0.15163334 0.92193006l-0.56912984 0c0 164.08539905 137.04514222 322.50173463 244.98781577 325.64054364 0.18499257-0.0626751 0.37099572-0.12535021 0.55598828-0.1880253 28.87501869-13.38921851 75.4102601-16.15602025 96.32554279-16.70998637 114.76010553 0.8046675 256.5998916 117.48141707 256.63729513 261.0831821C878.53907016 708.15049336 763.01978733 825.08502039 620.48855298 825.08502039zM620.48450965 356.63019435c-113.25489249 0-205.07086168 92.94007768-205.07086168 207.58494183 0 114.69237551 91.81596917 207.63245319 205.07086168 207.63245318S825.6018721 678.90751169 825.6018721 564.2151351800001C825.6018721 449.56926045 733.78893567 356.63019435 620.48450965 356.63019435zM1018.69168339-4.889814720000004c0 89.59504687-28.88007361 172.29785664-77.71912906 239.19744638-0.21127571 0.28810296-0.41850807 0.57822808-0.62978377 0.86532044-0.78141711 1.06446516-1.57799697 2.11882249-2.36952291 3.175201-10.81751814 14.3768564-22.56202025 27.99857885-35.149604 40.7681224l-0.11220863-0.1142308c-8.71486996 9.01207116-20.80206347 14.6861876-34.25193492 14.68618759-17.209366 0-34.32370825-29.39360441-20.30875031-43.40957394 72.24719008-60.14078951 112.27534126-146.16739989 112.27534124-255.16948464l-0.56912983 0c0-0.30629944 0.15163334-0.57519532 0.15163334-0.92193007 0-24.62827647 1.21913124-46.83345317 21.1609292-50.17342906 1.70031443-0.2850702 3.51991355-0.44883454 5.50327701-0.44883454 23.3019905 0 29.77875327 16.15804141 31.23443278 37.9760481 0.26990747 4.04355419 0.36695238 8.28119817 0.36695238 12.6462155 0 0.34572414-0.15264392 0.61462004-0.15264393 0.92193007L1018.69168339-4.890825309999968zM391.52028783 357.65119145999995M186.44942617 565.2361323M392.93755321 324.30501226M309.06918907 771.48265817C205.18422187 760.23854528 133.51526085 671.46433925 133.51526085 564.9348877699999c0-81.57364734 37.73444593-133.06729591 95.62803-180.96723639C89.90553061 320.99334167999996 6.21306177 235.08399386999997 6.21306177 70.78833067000005l0.56912984 1e-8c0-0.30629944-0.15163334-0.57519532-0.15163333-0.92193006 0-27.92074002 3.98087908-50.62226263 31.60138513-50.62226264 25.24693984 0 26.6642062 23.89336015 26.66420621 50.62125206 0 0.34572414 0.15163334 0.61462004 0.15163335 0.92193005l-0.56912984 0c0 164.08539905 123.63469549 267.2779074 231.57837961 270.41671541 0.08895823-0.03032647 17.23362698 2.45140505 21.16598312 14.21814698 4.48227989 13.41145732 4.14059908 31.1363763-15.46356139 39.55606724-67.71133333 29.07820773-115.30901771 88.20103188-115.3090177 170.25889416 0 93.18774533 55.17429371 131.97452545 134.80703501 151.88498535C344.98706859 723.05402312 343.45253967 775.20474918 309.06918907 771.48265817z"  horiz-adv-x="1025" />

    
    <glyph glyph-name="tianxiexinxi" unicode="&#58948;" d="M298.22710164 335.14337801c-0.68524084-0.87269845-1.37048167-1.79107831-1.67765917-2.89691734l-52.86438338-193.80982127c-3.08437349-11.28521325 0.07403693-23.44154862 8.42610174-32.01257622 6.24908458-6.10416026 14.48142952-9.4579023 23.24779023-9.4579023 2.89691584 0 5.79698276 0.34655818 8.65294161 1.10583749l192.43303891 52.48317049c0.3103271 0 0.45840252-0.2693701 0.69154306-0.26937163 2.21167499 0 4.38239296 0.8033859 6.02066994 2.48104509l514.57671129 514.50267435c15.28481544 15.30529392 23.6683869 36.15237675 23.66838535 58.83464602 0 25.7020561-10.90084767 51.39466038-29.99150688 70.43176116l-48.59698747 48.67417557c-19.06073042 19.08908597-44.78799096 30.01041062-70.47744408 30.01041058-22.67754338 0-43.52305141-8.38357149-58.8488238-23.64948318l-514.49479729-514.63972161c-0.5324395-0.48833286-0.38436558-1.21925662-0.76558006-1.7879272m649.16279658 382.51262809l-50.87167276-50.83386532a0.33710786 0.33710786 0 0 0-0.47730468 0.00157483l-82.3864642 83.69393553a0.33710786 0.33710786 0 0 0 0.00157633 0.4741551l50.15177408 50.15177412c7.96297485 8.00550662 23.39901528 6.83665884 32.54659201-2.3424215l48.62849109-48.674174c5.07551087-5.06605902 7.96927554-11.81135199 7.96927554-18.48103326-0.02993035-5.46775196-1.97538484-10.42826734-5.56226741-13.9899455M389.74223732 327.05910698L760.81212644 698.15105091a0.33710786 0.33710786 0 0 0 0.47730625-0.0015763l82.42741966-83.75064359a0.33710786 0.33710786 0 0 0-0.00157479-0.47415513L473.56691945 243.79679626999996a0.33710786 0.33710786 0 0 0-0.47573145 0l-83.34895068 83.26231071z m-67.6514156-150.54826448l26.68029664 97.93119788a0.33710786 0.33710786 0 0 0 0.56236987 0.14965023l70.75626757-70.76256832a0.33710786 0.33710786 0 0 0-0.14965022-0.5623698l-97.84928386-26.75590999z m657.89134989 337.25835909c-19.47817597 0-35.44980856-15.83773494-35.52384549-35.58055508V-1.125713850000011c0-25.38227715-20.57613791-45.95841356-45.95841356-45.95841355h-771.84931356c-25.30036314 0-46.00094689 20.70058375-46.00094692 46.00094534V781.10460935c0 25.38542675 20.57928754 45.96471581 45.9647158 45.96471583h481.85526466c18.1896083 0 34.54875605 13.01013013 36.74782805 31.06426444 2.6228198 21.52287334-14.16165055 39.92041624-35.21036726 39.9204147H121.23798026c-61.62129386 0-111.57458519-49.95329136-111.57458367-111.57300888V-6.576136909999946c0-61.61026719 49.94541429-111.55568148 111.5556815-111.55568146h782.64934352c61.63232048 0 111.59348736 49.96274319 111.5934889 111.59348734V478.41390851c-0.0756133 19.51598183-16.00628733 35.35529153-35.4797389 35.35529308"  horiz-adv-x="1024" />

    
    <glyph glyph-name="xingzhuang6kaobei4" unicode="&#58888;" d="M512 862.22269803c260.08915043 0 472.8893647-212.80021426 472.8893647-472.8893647s-212.80021426-472.8893647-472.8893647-472.8893647-472.8893647 212.80021426-472.8893647 472.8893647 212.80021426 472.8893647 472.8893647 472.8893647zM512-113.11161659000004c-277.82250137 0-502.44494992 224.62244854-502.44494992 502.44494992s224.62244854 502.44494992 502.44494992 502.44494992 502.44494992-224.62244854 502.44494992-502.44494992-224.62244854-502.44494992-502.44494992-502.44494992z m0 945.77872939c-242.35579948 0-443.33377946-200.97797998-443.33377946-443.33377947s200.97797998-443.33377946 443.33377946-443.33377946c248.26691614 0 443.33377946 200.97797998 443.33377946 443.33377946s-195.06686332 443.33377946-443.33377946 443.33377947z"  horiz-adv-x="1024" />

    
    <glyph glyph-name="chengyuan-selected" unicode="&#59183;" d="M833.07826117 382.26662020000003l-25.68384 13.82976001 19.7568 21.73248c33.58655999 37.53792001 53.34336 84.95424001 53.34336 134.34624002 0 96.80832001-75.07583999 183.73824001-169.90848 199.54367998 11.85408-17.78112 19.7568-35.56224 27.65952001-55.31903999 57.29472-19.7568 98.784-79.02720001 98.78399999-142.24896 0-61.24608-35.56224-116.56511999-92.85696001-142.24896-9.8784-3.95136-17.78112-11.85408-17.78111998-21.73248001s5.92704-17.78112 17.78111998-19.7568l5.92704-1.97568c130.39488-33.58655999 221.27616-148.176 221.27616001-282.52224v-49.39199998h-41.48928c1.97568-13.82976 3.95136-29.6352 3.95136-45.44064001h59.2704c11.85408 0 21.73248 9.8784 21.73247999 21.73247999v69.14880001c0 128.4192-69.14879999 243.00863999-181.76255999 300.30335999zM724.41586116 303.23942022999995c-37.53792001 41.48928-82.97855999 71.12448001-134.34624 92.85695998-17.78112 7.90271999-35.56224 11.85408-53.34335999 17.78112 21.73248 11.85408 43.46496001 25.68384 61.24608001 45.44064 45.44063999 45.44063999 71.12448001 104.71104 71.12447999 169.90848001 0 63.22175999-25.68384 124.46784-71.12447999 169.90847999s-104.71104 71.12448001-169.90848002 71.12448c-63.22175999 0-124.46784-25.68384-169.90847998-71.12448s-71.12448001-104.71104-71.12448001-169.90847999 25.68384-124.46784 71.12448001-169.90848001c17.78112-17.78112 39.51359999-33.58655999 61.24607998-43.46495998-77.05152001-17.78112-144.22464-57.29472-195.59231999-116.56512002-37.53792001-43.46496001-67.17312-94.83263999-84.95424-156.07871998-19.7568-61.24608-29.6352-132.37056-29.6352-209.42208002 0-9.8784 7.90271999-19.7568 19.7568-19.75679999h798.17472c9.8784 0 19.7568 7.90271999 19.7568 19.75679999 0 81.00287999-11.85408 152.12736-31.61088 215.34912001-21.73248 59.2704-51.36768 112.61376-90.88128001 154.10304001z"  horiz-adv-x="1024" />

    
    <glyph glyph-name="wancheng" unicode="&#58880;" d="M512 886.44494992H120.59538402C59.29710012 886.44494992 9.55505008 836.70289988 9.55505008 775.40461598v-782.80923196c0-61.29828389 49.74205004-111.04033394 111.04033394-111.04033394h782.80923196c61.29828389 0 111.04033394 49.74205004 111.04033394 111.04033394v445.16622562c0 22.61002275-18.08801819 40.69804094-40.69804094 40.69804094s-40.69804094-18.08801819-40.69804094-40.69804094v-445.16622562c0-16.58068335-13.0635687-29.64425204-29.64425206-29.64425206H120.59538402c-16.58068335 0-29.64425204 13.0635687-29.64425206 29.64425206V775.40461598c0 16.58068335 13.0635687 29.64425204 29.64425206 29.64425206H512c22.61002275 0 40.69804094 18.08801819 40.69804094 40.69804094S534.61002275 886.44494992 512 886.44494992zM899.3850564 739.2285796l-435.11732664-435.11732664-181.38262692 181.38262691c-7.53667426 7.53667426-18.08801819 12.0586788-28.63936214 12.05867881-11.0537889 0-21.10268789-4.01955961-28.63936216-12.05867881-7.53667426-7.53667426-12.0586788-18.08801819-12.05867878-28.63936212 0-11.0537889 4.01955961-21.10268789 12.05867878-28.63936215L435.62836761 218.19316651999998c7.53667426-7.53667426 18.08801819-12.0586788 28.63936215-12.05867879s21.10268789 4.01955961 28.63936215 12.05867879l464.25913372 464.25913372c16.07823839 16.07823839 16.07823839 41.70293083 0 57.78116925-16.07823839 15.07334849-42.20537579 15.07334849-57.78116923-1.00488989z"  horiz-adv-x="1024" />

    
    <glyph glyph-name="weibiaoti" unicode="&#58885;" d="M973.8402963 465.85124838a34.54272881 34.54272881 0 0 1-34.04210967-35.04334795v-432.53503728a44.05449424 44.05449424 0 0 0-43.55387511-45.0557325H122.28694217a44.05449424 44.05449424 0 0 0-43.5538751 45.0557325V769.72713685a44.05449424 44.05449424 0 0 0 43.5538751 45.0557325h458.56723893a34.54272881 34.54272881 0 0 1 34.04210868 35.04334793 34.54272881 34.54272881 0 0 1-34.04210871 35.04334794H117.28074989A108.13375957 108.13375957 0 0 1 11.14946783 774.73332913v-781.96727739A108.13375957 108.13375957 0 0 1 117.28074989-116.86956522000003h783.96975391a108.13375957 108.13375957 0 0 1 106.13128305 109.63561696V430.80790043a34.54272881 34.54272881 0 0 1-33.54149055 35.04334795zM535.29782847 644.07170282a35.04334794 35.04334794 0 0 1 35.04334794-35.04334696h168.70868903v-168.20806988a35.04334794 35.04334794 0 0 1 70.08669586 0V609.02835587h169.70992728a35.04334794 35.04334794 0 0 1 0 70.08669489h-170.21054641V848.82497902a35.04334794 35.04334794 0 0 1-70.08669587 0V679.11505076h-168.70868903a35.04334794 35.04334794 0 0 1-34.54272879-35.04334794z"  horiz-adv-x="1025" />

    
    <glyph glyph-name="notice-select" unicode="&#58883;" d="M898.88755321 68.57249102000003l-82.74417638 145.57936571L816.14337683 507.60358403c0 112.43255192-84.51013877 234.11401523-207.70840012 278.69824813-6.00174524 59.5868753-45.81971818 103.04126008-97.99483414 103.04126009-52.1027773 0-92.06427743-43.45553266-97.99253726-103.04126009-123.12936857-44.5842329-207.63835834-166.26454835-207.63835835-278.69824813l0-293.45172617-86.76868711-152.7098112c-5.78817738-10.09629777-5.64694596-22.45114502 0.14123142-32.47740214 5.78932526-10.02396024 16.52173731-16.09804413 28.09923886-16.09804413l206.50736235 0c15.17946811-73.28284389 80.06308271-128.49155591 157.65289909-128.4915559 77.66215392 0 142.54347164 55.20871314 157.65175009 128.4915559l206.50736236 0c0.56722038 0 0.98861781 0 1.48350065 0 18.00408896 0 32.54859178 14.47331317 32.54859177 32.47740213C908.63134745 54.45168249000005 904.95934023 62.71197609000001 898.88755321 68.57249102000003M510.44014369 824.17816376c11.71988085 0 21.18006547-8.89525999 27.25185249-22.16868326-9.03649144 0.91857602-17.79166898 3.03589407-27.25185249 3.03589407s-18.21421318-2.11731805-27.25185248-3.03589407C489.26122611 815.28405165 498.7214096 824.17816376 510.44014369 824.17816376M510.44014369-50.531217810000044c-41.30147247 0-75.82500187 26.54569755-89.24080445 63.39781708l178.47931203 0C586.26629344-23.984372389999976 551.81395369-50.531217810000044 510.44014369-50.531217810000044M202.19704721 77.89144418000001l63.40011395 111.61961194c2.8223251 4.80300434 4.3758664 10.45109817 4.37586641 16.09689626L269.97302757 507.60358403c0 109.6791196 102.79439261 232.34690385 240.46711612 232.34690384 137.67157452 0 240.60719855-122.66778425 240.60719857-232.34690384L751.04734226 205.60795238000003c0-5.64579808 1.48350065-11.29389192 4.23578397-16.09689626l63.47015574-111.61961194L202.19704721 77.89144418000001z"  horiz-adv-x="1024" />

    
    <glyph glyph-name="touxiang" unicode="&#58882;" d="M901.74927305 690.42021956L581.2460819 872.42731551C559.66356406 884.7130058 535.62489099 890.80081105 511.5852351 890.80081105c-24.03867305 0-48.07832897-6.08780526-69.65986396-18.37251269L121.4044886 690.42021956c-43.73312602-24.86427143-70.74198755-71.07222691-70.74198756-121.16737478l0-361.59440233c0-50.05878223 27.00886153-96.30212048 70.74198755-121.12904342l320.52088256-182.04739301C463.50690614-107.76535292000005 487.54656203-113.88854096 511.5852351-113.88854096c24.03965589 0 48.07832897 6.12318803 69.6608468 18.37054698l320.50319115 182.04739301c43.7508174 24.82692294 70.7410047 71.07124405 70.74100469 121.12904342L972.49027775 569.25284478C972.48929489 619.34799264 945.50009046 665.55594811 901.74927305 690.42021956zM547.63538183-37.05874815000004c-10.96375001-6.19886791-23.43421709-9.49831287-36.05014673-9.49831289-12.63362104 0-25.10310525 3.29944499-36.05014673 9.49831289L240.16878236 96.61349361999999c15.32959291 8.43289782 31.08083074 14.30152635 44.4840274 15.43967271 16.24659684 1.39368871 38.96529533 7.03920911 63.02362547 13.01890028 9.0216281 2.27334414 18.09829609 4.50933976 26.67960503 6.49077588 50.66323819 11.69794287 67.57031374 22.33341924 75.87544039 29.33822843 7.79404191 6.56547289 12.1756105 16.24561397 11.99279943 26.40440556-0.49535903 22.11424252-8.06825853 43.64073763-22.04052839 62.52826645-2.21928709 3.8871924-5.22584122 7.29671718-8.83881702 10.04772894-46.02416153 35.02404587-73.51069072 95.56891049-73.5106907 161.90967235 0 104.811681 69.29424182 190.07732018 154.46749258 190.07732019 85.15457653 0 154.42916123-85.15457653 154.42916124-189.89156056 0-66.19529928-27.48652917-126.59470132-73.51069071-161.6187472-2.19962999-1.65119679-4.2537974-3.70339848-5.99639972-5.86666281-16.02643727-20.0600751-24.3689124-42.02688934-24.86328856-65.24094688-0.18477679-10.0860603 4.14371763-19.69543582 11.80802264-26.25894298 7.46380257-6.34433046 22.77570408-15.21853028 75.34568141-27.42952357 31.68430384-7.40974552 68.28386664-13.79044164 88.9680548-15.55073535 17.51054866-1.53915128 37.11261323-8.21372109 54.55141344-17.67370262L547.63538183-37.05874815000004zM904.75582719 207.65844245000005c0-25.81764101-14.0282926-49.87400545-36.61823705-62.71107753l-9.80987799-5.57475481c-0.33122221 0.2938737-0.45801053 0.69684434-0.78923275 0.95435242-31.75801797 25.8903723-74.07779818 43.34784677-113.20919602 46.72198875-17.27269769 1.50278563-51.37875678 7.55422525-79.36064499 14.08038393-11.77263987 2.71464613-20.88469064 5.13541854-27.79711143 7.11587182 0.34891361 0.54941608 0.7155186 1.09784927 1.11848923 1.68559669 60.30897934 48.00658052 96.1920407 126.81486088 96.19204071 212.04413443 0 141.84959724-99.67626248 257.22205763-222.1813032 257.22205762-122.54238923 0-222.20096029-115.44617453-222.20096029-257.40781726 0-85.00714825 35.5724791-163.66996605 95.42246504-211.71291222 1.19122053-1.61286542 2.25466988-3.2267137 3.22671371-4.91427611-7.11488897-2.27334414-16.77832152-5.02337303-29.72350767-7.99356154-8.9665882-2.09053307-18.40887833-4.43857419-27.77942003-6.78366674-19.49198479-4.84154483-41.56789595-10.30425415-52.40584048-11.25860658-33.88589954-2.89647435-72.02461362-19.94901248-103.98608262-45.40103133l-19.83991555 11.22224093c-22.57127021 12.83707206-36.6172542 36.89343653-36.6172542 62.71107753L118.39695161 569.25284478c0 25.8549895 14.04598398 49.87498829 36.6172542 62.71009467l320.52088256 182.04444444c10.94704148 6.19788504 23.41554285 9.49831287 36.05014673 9.49831288 12.61592964 0 25.08541386-3.29944499 36.05014674-9.49831288l320.50319115-182.04444444c22.58896161-12.83608921 36.61823704-36.85608803 36.61823705-62.71009467L904.75681004 207.65844245000005z"  horiz-adv-x="1024" />

    
    <glyph glyph-name="gengduo" unicode="&#58937;" d="M989.86666667 384l-42.66666667 44.58666667-0.21333333-0.21333334-234.24 242.45333334-42.77333334-44.58666667 203.30666667-210.45333333H34.13333333v-63.68h839.14666667L669.97333333 141.76l42.77333334-44.58666667 234.24 242.45333334 0.21333333-0.21333334z"  horiz-adv-x="1024" />

    
    <glyph glyph-name="huiyuan" unicode="&#58936;" d="M996.97513408 540.75345655L798.15619299 788.38423347c-19.84220968 25.3980284-52.38343358 41.66864035-84.92465746 41.66864034H311.82363351c-32.54122389 0-63.2966489-14.48481307-84.92465747-41.66864034L27.88161285 540.75345655c-34.32702276-41.47021825-30.75542501-102.98106829 5.35739663-142.86390977l403.19370088-426.60750832 5.35739661-5.35739662c19.84220968-18.05641082 47.02603696-28.96962614 74.20986424-28.96962615h3.57159773c28.96962614 1.78579887 56.15345342 12.6990142 75.99566312 34.32702277l394.26470653 424.82170946c37.8986205 41.66864035 39.68441939 103.17949039 7.14319549 144.64970863z m-52.97869988-92.86154135L543.77906478 15.530166079999958c-7.34161758-7.34161758-16.46903404-11.11163743-25.79487261-11.11163743-9.12741646 0-18.453255 3.77001984-25.79487259 9.12741645L81.05873482 449.87613616c-12.8974363 12.8974363-12.8974363 33.13649019-1.78579887 47.81972535l200.20789576 251.99606306c7.34161758 9.12741646 18.453255 14.68323517 29.36647034 14.68323517H716.40628906c11.11163743 0 22.02485275-5.55581872 29.36647035-14.68323517l201.99369463-251.99606306c9.12741646-14.88165727 9.12741646-35.12071116-3.77001984-49.80394631zM512.03152927 149.46508146999997c-17.46114453 0-33.73175647 6.74635129-46.03392649 19.0485213l-214.29586464 214.29586464c-12.8974363 12.8974363-12.8974363 33.93017857 0 47.02603697 12.8974363 12.8974363 33.93017857 12.8974363 47.02603697 0L512.03152927 216.53175022999994 725.33528343 429.63708229c12.8974363 12.8974363 33.93017857 12.8974363 47.02603696 0 12.8974363-12.8974363 12.8974363-33.93017857 0-47.02603697l-214.29586464-214.29586464c-12.30217001-12.10374792-28.57278195-18.8500992-46.03392648-18.85009921z"  horiz-adv-x="1024" />

    
    <glyph glyph-name="icon-test" unicode="&#58938;" d="M991.71771377 792.11805498c14.31993175-14.31993175 23.26988909-34.00983791 23.26988907-57.27972702v-771.48632323c0-23.26988909-8.94995734-42.95979526-23.26988907-57.27972701-14.31993175-14.31993175-34.00983791-23.26988909-57.27972704-23.26988911H89.56201327c-23.26988909 0-42.95979526 8.94995734-57.27972704 23.26988911-14.31993175 14.31993175-23.26988909 34.00983791-23.26988907 57.27972701v769.69633177c0 23.26988909 8.94995734 42.95979526 23.26988907 57.27972704 14.31993175 14.31993175 34.00983791 23.26988909 57.27972704 23.26988907H225.60136493v32.21984644c0 10.73994881 3.57998293 21.47989762 12.52994027 28.63986352 7.15996588 7.15996588 17.8999147 12.52994029 28.63986352 12.52994027s21.47989762-3.57998293 28.63986351-12.52994027c7.15996588-7.15996588 12.52994029-17.8999147 12.52994028-28.63986352V813.59795261h413.48802939v32.21984644c0 10.73994881 3.57998293 21.47989762 12.5299403 28.63986352s17.8999147 12.52994029 28.6398635 12.52994027 21.47989762-3.57998293 28.63986351-12.52994027c7.15996588-7.15996588 12.52994029-17.8999147 12.52994027-28.63986352V813.59795261h134.24936021c19.68990615 0 37.58982086-7.15996588 53.69974408-21.47989763zM89.56201327 609.53892514h844.87597346v125.29940282H798.39863507v-23.26988907c0-10.73994881-3.57998293-21.47989762-12.52994027-28.63986353-7.15996588-7.15996588-17.8999147-12.52994029-28.63986352-12.52994029s-21.47989762 3.57998293-28.63986351 12.52994029c-7.15996588 7.15996588-12.52994029 17.8999147-12.52994028 28.63986353v23.26988907h-411.69803793v-23.26988907c0-10.73994881-3.57998293-21.47989762-12.52994029-28.63986353-7.15996588-7.15996588-17.8999147-10.73994881-28.63986348-10.73994879s-21.47989762 3.57998293-28.63986354 12.52994027c-7.15996588 7.15996588-12.52994029 17.8999147-12.52994026 28.63986349v23.26988913h-134.24936021c1.78999147-1.78999147 1.78999147-127.08939433 1.78999149-127.08939432zM934.43798673 527.1993175499999H89.56201327v-565.63730428h844.87597346V527.1993175499999z m-699.88666448-153.93926636c-7.15996588-7.15996588-8.94995734-14.31993175-8.94995732-25.05988056s3.57998293-19.68990615 10.73994882-25.05988058c7.15996588-7.15996588 16.10992321-10.73994881 25.05988055-10.73994882h71.59965879c10.73994881 0 19.68990615 3.57998293 25.05988055 10.73994882 7.15996588 7.15996588 10.73994881 16.10992321 10.73994881 25.05988058s-3.57998293 19.68990615-10.73994881 25.05988056c-7.15996588 7.15996588-14.31993175 10.73994881-25.05988055 10.73994881h-71.59965879c-10.73994881 0-19.68990615-3.57998293-26.84987205-10.73994881z m0-216.58896776c-7.15996588-7.15996588-10.73994881-16.10992321-10.73994882-25.0598806 0-10.73994881 3.57998293-19.68990615 10.73994882-25.05988058 7.15996588-7.15996588 16.10992321-10.73994881 25.05988058-10.73994882h71.59965877c10.73994881 0 19.68990615 3.57998293 25.05988057 10.73994882 7.15996588 7.15996588 10.73994881 16.10992321 10.73994882 25.05988058 0 10.73994881-3.57998293 19.68990615-10.73994882 25.0598806-7.15996588 7.15996588-16.10992321 10.73994881-25.05988057 10.7399488h-71.59965877c-8.94995734-1.78999147-17.8999147-5.36997442-25.05988058-10.7399488z m216.5889678 216.58896776c-7.15996588-7.15996588-10.73994881-14.31993175-10.73994882-25.05988056s3.57998293-19.68990615 10.73994882-25.05988058c7.15996588-8.94995734 14.31993175-10.73994881 25.05988058-10.73994882h71.59965874c10.73994881 0 19.68990615 3.57998293 25.05988058 10.73994882 7.15996588 7.15996588 10.73994881 16.10992321 10.73994882 25.05988058s-3.57998293 19.68990615-10.73994882 25.05988056c-5.36997442 7.15996588-14.31993175 10.73994881-25.05988058 10.73994881h-71.59965874c-10.73994881 0-19.68990615-3.57998293-25.05988058-10.73994881z m0-216.58896776c-7.15996588-7.15996588-10.73994881-16.10992321-10.73994882-25.0598806 0-10.73994881 3.57998293-19.68990615 10.73994882-25.05988058 7.15996588-7.15996588 16.10992321-10.73994881 25.05988058-10.73994882h71.59965874c10.73994881 0 19.68990615 3.57998293 25.05988058 10.73994882 7.15996588 7.15996588 10.73994881 16.10992321 10.73994882 25.05988058 0 10.73994881-3.57998293 19.68990615-10.73994882 25.0598806-7.15996588 7.15996588-16.10992321 10.73994881-25.05988058 10.7399488h-71.59965874c-10.73994881-1.78999147-19.68990615-5.36997442-25.05988058-10.7399488z m214.79897631 216.58896776c-7.15996588-7.15996588-10.73994881-14.31993175-10.73994881-25.05988056s3.57998293-19.68990615 10.73994881-25.05988058c7.15996588-8.94995734 16.10992321-10.73994881 25.05988055-10.73994882h71.59965879c10.73994881 0 19.68990615 3.57998293 25.05988055 10.73994882 7.15996588 7.15996588 10.73994881 16.10992321 10.73994882 25.05988058s-3.57998293 19.68990615-10.73994882 25.05988056c-7.15996588 7.15996588-16.10992321 10.73994881-25.05988055 10.73994881h-71.59965879c-10.73994881 0-17.8999147-3.57998293-25.05988055-10.73994881z"  horiz-adv-x="1024" />

    
    <glyph glyph-name="liucheng" unicode="&#58909;" d="M515.31502856 638.01826568c69.3704461 0 125.60634797 56.23590186 125.60634795 125.60634795 0 69.3704461-56.23590186 125.60634797-125.60634795 125.60634796-69.3704461 0-125.60519516-56.23590186-125.60519518-125.60634796 0-69.3704461 56.23590186-125.60634797 125.60519518-125.60634795z m0 188.24987887c34.54171731 0 62.64468369-28.1018136 62.64468257-62.64468371 0-34.54171731-28.1018136-62.64468369-62.64468257-62.64468257-34.54171731 0-62.64353092 28.1018136-62.64353091 62.64468257s28.1018136 62.64468369 62.64353091 62.64468371zM137.60843845 304.56223518c-69.3704461 0-125.60634797-56.23590186-125.60634797-125.60634796 0-69.3704461 56.23590186-125.60634797 125.60634796-125.60634683S263.21478638 109.58544226000004 263.21478638 178.95588722000002c-0.00115278 69.3704461-56.23590186 125.60634797-125.60634793 125.60634796z m-1e-8-188.24987773c-34.54171731 0-62.64468369 28.1018136-62.6446837 62.64468256 0 34.54171731 28.1018136 62.64468369 62.6446837 62.64468369s62.64468369-28.1018136 62.64468369-62.64468369c-0.00115278-34.54286897-28.10296638-62.64468369-62.64468369-62.64468256zM893.28442497 304.56223518c-69.3704461 0-125.60634797-56.23590186-125.60634796-125.60634796 0-69.3704461 56.23590186-125.60634797 125.60634796-125.60634683s125.60634797 56.23590186 125.60634683 125.60634683c0 69.3704461-56.23590186 125.60634797-125.60634683 125.60634796z m0-188.24987773c-34.54286897 0-62.64468369 28.1018136-62.64468371 62.64468256 0 34.54171731 28.1018136 62.64468369 62.64468371 62.64468369 34.54171731 0 62.64468369-28.1018136 62.64468257-62.64468369s-28.10296638-62.64468369-62.64468257-62.64468256zM514.43439678-29.850502040000038c-89.73907352 0-177.20279991 31.40418076-246.26778993 88.40198965l-40.08946253-48.54305875c80.33222779-66.31244287 182.03013281-102.82059515 286.35610079-102.82059516 105.21812427 0 207.59264016 37.07641239 288.24645968 104.38821064l-40.33497926 48.32751223c-69.3704461-57.87382952-157.40358425-89.75405864-247.91032875-89.75405861zM901.64350385 357.35860391999995h62.96166428c0 174.29810054-102.11286239 334.53030805-260.16308843 408.20593392l-26.59298351-57.05889986c135.94569415-63.3927584 223.79440768-201.21382856 223.79440766-351.14703406zM351.0196985 708.50563798l-26.5929835 57.05889986c-158.03524092-73.67562475-260.14810445-233.90898619-260.14810445-408.20593392h62.96166425c0 149.93320551 87.84871354 287.77041131 223.7794237 351.14703406z"  horiz-adv-x="1024" />

    
    <glyph glyph-name="danxuanxuanzhong" unicode="&#58881;" d="M512-113.11161659000004C234.50731645-113.11161659000004 9.55505008 111.84064978000004 9.55505008 389.33333333 9.55505008 666.82601688 234.50731645 891.77828325 512 891.77828325 789.49268355 891.77828325 1014.44494992 666.82601688 1014.44494992 389.33333333 1014.44494992 111.84064978000004 789.49268355-113.11161659000004 512-113.11161659000004ZM512-50.30599785000004C754.80609519-50.30599785000004 951.63933118 146.52723814 951.63933118 389.33333333 951.63933118 632.13943144 754.80609519 828.97266451 512 828.97266451 269.19390189 828.97266451 72.36066882 632.13943144 72.36066882 389.33333333 72.36066882 146.52723814 269.19390189-50.30599785000004 512-50.30599785000004ZM512 75.30523962999996C685.43292428 75.30523962999996 826.0280937 215.90040905 826.0280937 389.33333333 826.0280937 562.76626055 685.43292428 703.36142703 512 703.36142703 338.56707278 703.36142703 197.9719063 562.76626055 197.9719063 389.33333333 197.9719063 215.90040905 338.56707278 75.30523962999996 512 75.30523962999996Z"  horiz-adv-x="1024" />

    
    <glyph glyph-name="xiaorentou" unicode="&#58891;" d="M512 896C229.376 896 0 666.624 0 384s229.376-512 512-512 512 229.376 512 512-229.376 512-512 512z m5.12-192c87.552 0 158.72-70.144 158.72-156.16 0-86.528-71.168-156.16-158.72-156.16S358.4 461.824 358.4 547.84c0 86.528 71.168 156.16 158.72 156.16z m-59.392-364.544h132.608c113.152 0 205.312-90.112 205.312-201.728v-12.8c0-44.032-91.648-45.568-205.312-45.568H457.728c-113.152 0-205.312 0-205.312 45.568v12.8c0 111.616 92.16 201.728 205.312 201.728z"  horiz-adv-x="1024" />

    
    <glyph glyph-name="chanpin1" unicode="&#58986;" d="M131.30330326 686.28680955l364.37893172 188.33068377c12.28243586 8.18829091 24.56487171 8.18829091 36.84730756 0l364.37893272-188.33068377c20.47072676-12.28243586 28.65901666-36.84730757 16.37658081-53.22388839-4.09414495-8.18829091-8.18829091-12.28243586-16.37658081-16.37658179l-364.37893272-188.3306838c-12.28243586-8.18829091-24.56487171-8.18829091-36.84730756 0l-364.37893172 188.3306838c-20.47072676 12.28243586-28.65901666 36.84730757-16.3765818 53.22388936l16.3765818 16.37658082zM598.03586777-107.97737912000002h-12.28243585c-12.28243586 4.09414495-20.47072676 8.18829091-24.56487171 20.47072676-4.09414495 4.09414495-4.09414495 12.28243586-4.09414596 20.47072676v425.79111099c0 16.3765808 8.18829091 28.65901666 20.47072677 36.84730757l339.81405999 180.14239388c8.18829091 4.09414495 20.47072676 8.18829091 32.75316262 4.09414495 12.28243586-4.09414495 20.47072676-8.18829091 24.56487171-20.47072675 4.09414495-4.09414495 4.09414495-12.28243586 4.09414596-20.47072577v-425.79111199c0-16.3765808-8.18829091-28.65901666-20.47072677-36.84730757l-339.81405999-180.14239288c-4.09414495-4.09414495-12.28243586-4.09414495-20.47072677-4.09414595z m-8.18829091 483.10914631l8.18829091-16.3765818v-425.79111099l339.81406001 180.14239288v425.79111199l-339.81406001-180.14239388-8.18829091 16.3765818zM454.74078246-112.07152408000002c-4.09414495 0-12.28243586 0-16.37658181 4.09414496l-352.09649586 188.33068378c-12.28243586 4.09414495-20.47072676 16.3765808-20.47072676 32.75316262V551.18001512c0 4.09414495 0 12.28243586 4.09414595 16.3765808 8.18829091 16.3765808 28.65901666 24.56487171 49.12974343 12.28243587l352.09649585-188.33068378c12.28243586-4.09414495 20.47072676-16.3765808 20.47072677-32.75316262v-442.1676928c0-4.09414495 0-12.28243586-4.09414596-16.37658081-8.18829091-8.18829091-20.47072676-12.28243586-32.75316161-12.28243586z m-343.90820596 225.17799136l339.81406001-180.14239288v425.79111099l-339.81406001 180.14239388v-425.79111199z"  horiz-adv-x="1024" />

    
    <glyph glyph-name="chanpin" unicode="&#58982;" d="M554.666667 890.311111c153.6-68.266667 307.2-142.222222 460.8-210.488889 5.688889-5.688889 17.066667-5.688889 17.066666-17.066666 0-11.377778-11.377778-11.377778-17.066666-17.066667-153.6-68.266667-307.2-142.222222-455.111111-210.488889-22.755556-11.377778-45.511111-11.377778-68.266667 0-159.288889 68.266667-312.888889 142.222222-466.488889 210.488889-5.688889 5.688889-19.911111 5.688889-19.911111 17.066667 0 11.377778 11.377778 11.377778 17.066667 17.066666C176.355556 748.088889 329.955556 822.044444 483.555556 890.311111c17.066667 5.688889 54.044444 5.688889 71.111111 0zM517.688889-128c-11.377778 0-17.066667 5.688889-34.133333 11.377778-153.6 68.266667-307.2 136.533333-455.111112 210.488889-11.377778 0-22.755556 5.688889-22.755555 17.066666 0 11.377778 11.377778 11.377778 17.066667 17.066667 22.755556 11.377778 51.2 22.755556 73.955555 34.133333 22.755556 11.377778 51.2 11.377778 73.955556 0 102.4-45.511111 204.8-91.022222 301.511111-136.533333 22.755556-11.377778 51.2-11.377778 73.955555 0L853.333333 162.133333c22.755556 11.377778 45.511111 11.377778 73.955556 0s51.2-22.755556 79.644444-34.133333c5.688889 0 5.688889-5.688889 11.377778-5.688889 5.688889-5.688889 5.688889-11.377778 0-17.066667-2.844444-5.688889-8.533333-5.688889-17.066667-5.688888-153.6-68.266667-301.511111-136.533333-455.111111-204.8 0-17.066667-17.066667-22.755556-28.444444-22.755556z m0 278.755556c-5.688889 0-22.755556 5.688889-34.133333 11.377777-153.6 68.266667-301.511111 136.533333-455.111112 210.488889-11.377778 0-22.755556 0-22.755555 11.377778s11.377778 11.377778 17.066667 17.066667c22.755556 11.377778 51.2 22.755556 79.644444 34.133333 22.755556 11.377778 51.2 11.377778 73.955556 0 102.4-45.511111 204.8-91.022222 307.2-142.222222 22.755556-11.377778 45.511111-11.377778 73.955555 0 102.4 45.511111 204.8 91.022222 307.2 142.222222 22.755556 11.377778 45.511111 11.377778 73.955556 0s51.2-22.755556 79.644444-34.133333c5.688889 0 5.688889-5.688889 11.377778-5.688889 5.688889-5.688889 5.688889-17.066667 0-22.755556-5.688889 0-5.688889-5.688889-11.377778-5.688889-150.755556-68.266667-307.2-142.222222-460.8-210.488889-17.066667 0-31.288889-5.688889-39.822222-5.688888zM553.244444 890.311111c153.6-68.266667 307.2-142.222222 460.8-210.488889 5.688889-5.688889 17.066667-5.688889 17.066667-17.066666 0-11.377778-11.377778-11.377778-17.066667-17.066667-153.6-68.266667-307.2-142.222222-455.111111-210.488889-22.755556-11.377778-45.511111-11.377778-68.266666 0-159.288889 68.266667-312.888889 142.222222-466.488889 210.488889-5.688889 5.688889-17.066667 5.688889-17.066667 17.066667 0 11.377778 11.377778 11.377778 17.066667 17.066666 153.6 68.266667 307.2 142.222222 460.8 210.488889 17.066667 5.688889 51.2 5.688889 68.266666 0zM519.111111-128c-11.377778 0-17.066667 5.688889-34.133333 11.377778-153.6 68.266667-307.2 136.533333-455.111111 210.488889-11.377778 0-22.755556 5.688889-22.755556 17.066666 0 11.377778 11.377778 11.377778 17.066667 17.066667 22.755556 11.377778 51.2 22.755556 73.955555 34.133333 22.755556 11.377778 51.2 11.377778 73.955556 0 102.4-45.511111 204.8-91.022222 301.511111-136.533333 22.755556-11.377778 51.2-11.377778 73.955556 0l307.2 136.533333c22.755556 11.377778 45.511111 11.377778 73.955555 0s51.2-22.755556 79.644445-34.133333c5.688889 0 5.688889-5.688889 11.377777-5.688889 5.688889-5.688889 5.688889-11.377778 0-17.066667-5.688889-5.688889-11.377778-5.688889-17.066666-5.688888-153.6-68.266667-301.511111-136.533333-455.111111-204.8 0-17.066667-17.066667-22.755556-28.444445-22.755556z m0 278.755556c-5.688889 0-22.755556 5.688889-34.133333 11.377777-153.6 68.266667-301.511111 136.533333-455.111111 210.488889-11.377778 0-22.755556 0-22.755556 11.377778s11.377778 11.377778 17.066667 17.066667c22.755556 11.377778 51.2 22.755556 79.644444 34.133333 22.755556 11.377778 51.2 11.377778 73.955556 0 102.4-45.511111 204.8-91.022222 307.2-142.222222 22.755556-11.377778 45.511111-11.377778 73.955555 0 102.4 45.511111 204.8 91.022222 307.2 142.222222 22.755556 11.377778 45.511111 11.377778 73.955556 0s51.2-22.755556 79.644444-34.133333c5.688889 0 5.688889-5.688889 11.377778-5.688889 5.688889-5.688889 5.688889-17.066667 0-22.755556-5.688889 0-5.688889-5.688889-11.377778-5.688889-153.6-68.266667-307.2-142.222222-460.8-210.488889-17.066667 0-34.133333-5.688889-39.822222-5.688888z"  horiz-adv-x="1052" />

    
    <glyph glyph-name="huiyuan1" unicode="&#58886;" d="M1196.16 534.18666667l-163.84 307.2c-20.48 34.13333333-54.61333333 61.44-95.57333333 61.44H274.56c-40.96 0-75.09333333-20.48-95.57333333-61.44l-157.01333333-307.2c-20.48-40.96-13.65333333-95.57333333 13.65333333-129.70666667L527.14666667-128c20.48-20.48 47.78666667-34.13333333 81.92-34.13333333 27.30666667 0 54.61333333 6.82666667 75.09333333 27.30666666l498.34666667 539.30666667c27.30666667 34.13333333 34.13333333 88.74666667 13.65333333 129.70666667z m-266.24-95.57333334l-232.10666666-273.06666666-13.65333334-13.65333334c-20.48-13.65333333-47.78666667-27.30666667-68.26666666-27.30666666H609.06666667c-27.30666667 0-54.61333333 13.65333333-75.09333333 40.96L301.86666667 438.61333333c-20.48 13.65333333-20.48 40.96-6.82666667 54.61333334 13.65333333 13.65333333 40.96 13.65333333 47.78666667-6.82666667L574.93333334 213.33333332999996c6.82666667-6.82666667 13.65333333-13.65333333 27.30666666-13.65333333 6.82666667 0 20.48 0 27.30666667 6.82666667l238.93333333 279.89333333c13.65333333 13.65333333 34.13333333 20.48 47.78666667 6.82666667 20.48-13.65333333 20.48-40.96 13.65333333-54.61333334z"  horiz-adv-x="1216" />

    
    <glyph glyph-name="shichang" unicode="&#58993;" d="M1014.44266667 428.2368h-458.20586667V886.44266667C675.84 879.34293333 788.34346667 829.0986666700001 872.448 744.448c84.65066667-84.10453333 134.89493333-196.06186667 141.99466667-316.2112zM128.06826667 48.67413333000002C51.6096 136.60159999999996 9.55733333 248.55893332999995 9.55733333 364.88533333c0 129.4336 50.24426667 250.6752 141.44853334 341.87946667 81.92 81.92 191.14666667 131.61813333 306.92693333 139.81013333v-468.5824l-329.86453333-329.3184zM492.88533333-118.44266667c128.88746667 0 250.12906667 50.24426667 341.33333334 141.44853334 81.92 81.92 131.61813333 191.14666667 139.81013333 307.47306666l-466.39786667 1.6384-331.50293333-332.04906666c89.01973333-76.45866667 200.97706667-118.51093333 316.75733333-118.51093334z"  horiz-adv-x="1024" />

    
    <glyph glyph-name="zuobian" unicode="&#58962;" d="M512 881.48711758c-279.94305931 0-506.80718696-222.77238987-506.80718696-497.48711758 0-274.8283871 226.97778702-497.48711758 506.80718696-497.48711758 279.94305931 0 506.80718696 222.77238987 506.80718696 497.48711758 0 274.8283871-226.86412765 497.48711758-506.80718696 497.48711758z m290.51338189-539.08645161h-448.95456121l174.80813041-171.51200832c16.59426985-16.25329171 16.59426985-42.62226847 0-58.87556017-16.59426985-16.25329171-43.41788415-16.25329171-60.012154 0L228.41984044 347.4016788c-10.22934443 10.00202567-13.29814777 23.64115158-11.02496011 36.5983212-2.27318764 12.95716961 0.79561568 26.59629553 11.02496011 36.5983212l239.93495665 235.50224071c16.59426985 16.25329171 43.41788415 16.25329171 60.012154 0 16.59426985-16.25329171 16.59426985-42.62226847 0-58.87556018l-174.80813041-171.6256677h448.95456121c23.41383281 0 42.39494971-18.64013875 42.39494971-41.59933403 0-22.95919528-18.98111689-41.59933403-42.39494971-41.59933403z"  horiz-adv-x="1024" />

    
    <glyph glyph-name="ruzhidengjixinxitianxie" unicode="&#59111;" d="M933.00599357-115.87385895H90.99400643a84.20119871 84.20119871 0 0 0-84.20119871 84.20119871V810.3393269000001a84.20119871 84.20119871 0 0 0 84.20119871 84.20119871h842.01198714a84.20119871 84.20119871 0 0 0 84.20119871-84.20119871v-842.01198714a84.20119871 84.20119871 0 0 0-84.20119871-84.20119871z m0 926.21318585H90.99400643v-842.01198714h842.01198714V810.3393269000001z m-673.60958971-126.30179808h505.20719228a42.10059935 42.10059935 0 1 0 0-84.20119873H259.39640386a42.10059935 42.10059935 0 1 0 0 84.20119873z m0-252.60359614h505.20719228a42.10059935 42.10059935 0 1 0 0-84.2011987H259.39640386a42.10059935 42.10059935 0 1 0 0 84.2011987z m0-252.60359611h336.80479485a42.10059935 42.10059935 0 1 0 0-84.20119873h-336.80479485a42.10059935 42.10059935 0 1 0 0 84.20119873z"  horiz-adv-x="1024" />

    
    <glyph glyph-name="shouhoucopy" unicode="&#58941;" d="M511.906909 896C229.934545 896 1.326545 667.392 1.326545 385.396364c0-281.972364 228.608-510.603636 510.603637-510.603637 281.972364 0 510.580364 228.631273 510.580363 510.603637C1022.510545 667.392 793.902545 896 511.906909 896z m302.429091-359.051636c-10.053818-79.592727-67.816727-148.317091-151.435636-148.317091a153.134545 153.134545 0 0 0-90.228364 29.184l5.422545-5.422546s-13.498182-15.592727-34.955636-40.168727l54.877091-55.691636s34.955636 35.746909 48.407273 30.789818c49.198545-18.222545 166.004364-162.909091 166.004363-162.909091l-100.538181-99.886546s-147.781818 115.549091-166.027637 164.142546c-3.909818 10.472727 20.736 39.563636 20.736 39.563636l-51.316363 52.154182c-69.399273-79.034182-178.036364-201.309091-229.003637-251.066182-18.757818-18.315636-93.207273 55.714909-74.333091 73.937455 49.710545 48.058182 172.218182 159.534545 250.717091 230.586182l-147.060363 149.364363-60.509091 8.145455-36.677819 80.686545 35.188364 36.840728 80.337455-39.889455 12.893091-57.483636 147.130181-149.341091c23.877818 21.597091 39.005091 35.211636 39.005091 35.211636l6.749091-6.702545a145.594182 145.594182 0 0 0-28.276363 86.272c0 81.896727 66.653091 131.933091 151.458909 148.293818 20.922182 4.026182 41.588364-4.375273 59.973818-12.148364l-88.226909-94.254545 72.890182-68.328728 89.344 95.441455c11.101091-20.619636 20.573091-44.288 17.454545-69.003636z"  horiz-adv-x="1024" />

    
    <glyph glyph-name="shichangqianjing" unicode="&#58949;" d="M512-99.88611409999999L86.30410962 146.26773204999995V638.42051281L512 884.57435897l426.31553462-246.15384616v-492.15278076zM127.04574711 170.12405129l384.95425289-222.29752596 384.95425289 222.29752596V614.56419263L512 836.86171953 127.04574711 614.56419263zM518.19644712 199.40226282000003H253.14343846v41.36128173h265.05300866a96.5096577 96.5096577 0 1 1-96.5096577 95.89001249v-54.06399711h-41.05145962v54.06399711a137.87093943 137.87093943 0 1 0 137.87093943-137.87093941zM261.19881923 379.25412821h80.70871827v-41.36128174h-80.70871827zM330.27370866 523.2130772400001l32.37643461 25.73074519 51.46148942-64.75286826-32.37643365-25.74623654zM494.49503847 590.2431397400001h41.36128172v-91.39758943h-41.36128172zM620.39134422 470.88408493l60.38437308 68.40877116 31.01321635-27.38829424-60.39986442-68.39328076zM683.79648557 378.32466185h87.06007597v-41.36128268h-87.06007597zM659.47543173 249.03580032000002l30.997725 27.37280385 60.39986442-68.39328078-30.99772499-27.37280386z"  horiz-adv-x="1024" />

    
    <glyph glyph-name="chenggong" unicode="&#59507;" d="M942.50890399 126.13260000000002c-10.69572-17.821104-33.812352-23.59644-51.63227999-12.90072-17.819928 10.69454399-23.59644 33.811176-12.90072001 51.63228001 39.40658399 65.65725599 60.520488 140.80247999 60.52048801 219.13583999 0 235.54692-190.949472 426.496392-426.496392 426.496392-235.54692 0-426.496392-190.949472-426.496392-426.496392 0-235.54692 190.949472-426.496392 426.496392-426.496392 78.3216 0 153.45624 21.10919999 219.107616 60.502848 17.821104 10.69454399 40.93656 4.91567999 51.631104-12.904248 10.693368-17.821104 4.91567999-40.93656-12.905424-51.631104-77.26908001-46.367328-165.773664-71.23032-257.833296-71.23031999-277.11381599 0-501.76039199 224.6454-501.76039199 501.75921599S234.88736 885.76039199 512 885.76039199c277.11381599 0 501.76039199-224.646576 501.76039199-501.76039199 0-92.072568-24.8724-180.59008801-71.251488-257.8674zM350.395256 410.51880001l99.180312-98.77459201 223.955088 224.284368c14.68471199 14.70705601 38.51282401 14.724696 53.21988 0.039984 14.70705601-14.68588801 14.72352-38.514 0.038808-53.21988l-250.51152-250.87960799c-14.6706-14.69412-38.471664-14.72704799-53.183424-0.07408801L297.284744 357.191904c-14.725872 14.665896-14.775264 38.494008-0.109368 53.21987999 14.66707201 14.725872 38.494008 14.775264 53.21988 0.10819201z"  horiz-adv-x="1024" />

    
    <glyph glyph-name="shibai" unicode="&#59515;" d="M935.78220237 130.16177813000002c-10.52859937-17.54264925-33.284034-23.22774563-50.82552562-12.69914625-17.54149163 10.52744174-23.22774563 33.28287638-12.69914626 50.82552563 38.79085612 64.63136137 59.57485537 138.60244124 59.57485539 215.71184249 0 231.86649937-187.9658865 419.83238587-419.83238588 419.83238587-231.86649937 0-419.83238587-187.9658865-419.83238587-419.83238587 0-231.86649937 187.9658865-419.83238587 419.83238587-419.83238587 77.097825 0 151.05848625 20.77936874 215.6840595 59.55749099 17.54264925 10.52744174 40.29692625 4.83887249 50.824368-12.70261912 10.52628413-17.54264925 4.83887249-40.29692625-12.70377675-50.824368-76.06175063-45.6428385-163.1834505-70.11734625-253.80465075-70.11734624-272.78391262 0-493.92038587 221.13531563-493.92038587 493.91922824S239.217245 877.92038587 512 877.92038587c272.78391262 0 493.92038587-221.13647325 493.92038587-493.92038587 0-90.63393413-24.48376875-177.76836788-70.1381835-253.83822187zM562.05223212 384l100.10562188-100.10562187c13.8220425-13.8220425 13.8220425-36.23018963 0-50.05223213-13.8220425-13.8220425-36.23134726-13.8220425-50.05223212 0L512 333.94776788l-100.10562187-100.10562188c-13.8220425-13.8220425-36.23018963-13.8220425-50.05223213 0-13.8220425 13.8220425-13.8220425 36.23134726 0 50.05223212L461.94776788 384l-100.10562188 100.10562187c-13.8220425 13.8220425-13.8220425 36.23018963 0 50.05223213 13.8220425 13.8220425 36.23134726 13.8220425 50.05223212 0L512 434.05223212l100.10562187 100.10562188c13.8220425 13.8220425 36.23018963 13.8220425 50.05223213 0 13.8220425-13.8220425 13.8220425-36.23134726 0-50.05223212L562.05223212 384z"  horiz-adv-x="1024" />

    
    <glyph glyph-name="gengduo1" unicode="&#58903;" d="M743.75044749 673.52031867l255.13349027-255.51929436c5.78705156-4.56254467 10.33282281-10.46701499 12.91602779-17.51212122 0.11741876-0.50322187 0.21806314-0.8387028 0.21806313-1.14063593 1.84514654-4.14319375 2.48256157-8.68896403 2.68384934-13.25150967 0-0.62064064 0.51999626-1.34192467 0.51999627-1.96256532 0-1.2412803-0.8387028-2.28127283-0.83870281-3.52255311-0.20128875-2.68385032-0.82192939-5.38447406-1.74450314-8.0850978-0.8387028-3.20384561-2.18062845-6.10575907-3.6231975-9.00767154a39.58678712 39.58678712 0 0 0-3.40513435-5.08254093c-1.14063593-1.44256904-1.66063219-3.30448999-3.22062-4.64641564L743.73367311 94.64742228c-16.63986965-16.7740628-43.72998088-16.7740628-60.18533617 0a42.8577293 42.8577293 0 0 0 0 60.4872693L869.62301167 341.56162161H454.68302852A43.37772556 43.37772556 0 0 0 411.35562514 384.75483281c0 23.81916905 19.45791215 43.19321121 43.32740338 43.1932112H868.28108699L683.54833694 613.13369374c-16.63986965 16.4553553-16.63986965 43.69643308 0 60.38662493 16.4385809 16.55599966 43.54546651 16.55599966 60.20211055 0zM293.93718748 392.38703091c0-23.13143183-18.82049809-41.93515652-41.98547773-41.93515554A41.91838213 41.91838213 0 0 0 210.06687543 392.38703091c0 23.23207621 18.82049809 41.93515652 41.88483432 41.93515652A41.80096336 41.80096336 0 0 0 293.93718748 392.38703091z m-201.28874971 0A41.93515652 41.93515652 0 1 0 50.66296004 434.32218743 41.80096336 41.80096336 0 0 0 92.64843777 392.38703091z"  horiz-adv-x="1024" />

    
    <glyph glyph-name="zijin" unicode="&#58887;" d="M777.386667 621.952a159.658667 159.658667 0 0 1-13.013334 9.130667c40.192 20.224 66.773333 56.746667 66.773334 98.773333 0 66.346667-64.682667 116.992-141.312 116.992-17.749333 0-33.92-3.029333-48.512-8.618667a85.76 85.76 0 0 1-16.682667-7.594666c-2.090667-1.024-7.808 0.512-9.898667 3.029333a146.389333 146.389333 0 0 1-27.136 29.397333C565.845333 881.493333 540.416 893.525333 512 896c-28.416-2.474667-53.888-14.506667-75.648-32.938667-12.501333-10.666667-21.333333-20.778667-27.093333-29.397333-2.090667-2.517333-7.808-4.053333-9.898667-2.986667a85.034667 85.034667 0 0 1-16.682667 7.552 135.04 135.04 0 0 1-48.512 8.618667c-76.672 0-141.312-50.645333-141.312-116.992 0-42.069333 26.581333-78.506667 66.730667-98.773333-4.138667-2.56-8.32-5.589333-13.013333-9.130667A617.813333 617.813333 0 0 1 164.693333 551.04C89.088 473.514667 42.666667 384.384 42.666667 285.610667c0-274.517333 210.688-405.205333 464.64-405.205334h9.386666c253.952 0 464.64 130.688 464.64 405.205334 0 98.773333-46.421333 187.904-122.026666 265.386666a617.813333 617.813333 0 0 1-81.92 70.954667z m-227.968-322.304v-48.810667h95.445333a37.418667 37.418667 0 0 0 0-74.88h-95.445333v-57.6a37.418667 37.418667 0 0 0-74.88 0v57.6H379.136a37.418667 37.418667 0 0 0 0 74.88h95.402667v48.810667H377.813333a37.418667 37.418667 0 0 0 0 74.837333h43.818667l-69.76 69.802667a37.418667 37.418667 0 1 0 52.906667 52.906667L512 389.973333l107.178667 107.221334a37.418667 37.418667 0 1 0 52.906666-52.906667l-69.76-69.802667h44.16a37.418667 37.418667 0 0 0 0-74.837333h-97.066666z"  horiz-adv-x="1024" />

    
    <glyph glyph-name="xiaorenx" unicode="&#58908;" d="M217.38875414 594.20206672a299.97055896 299.97055896 0 0 1 301.25377415-301.25377416 299.97055896 299.97055896 0 0 1 301.2537752 301.17829176A299.97055896 299.97055896 0 0 1 518.79349515 895.53132534a299.97055896 299.97055896 0 0 1-301.32925861-301.25377519zM810.30992663 297.70373928000004a59.4808251 59.4808251 0 0 1-81.22001021-4.75544672 300.27249268 300.27249268 0 0 0-420.81929178 0 59.4808251 59.4808251 0 0 1-81.29549467 4.75544672C136.09325947 221.16369131 69.21507281 120.77092739 45.2868724-17.891859469999986c-9.58637685-57.36729323 28.68364713-100.39276392 86.05094035-100.39276393h774.6094311c57.36729323 0 95.63731721 47.7809174 86.05094138 100.39276393-19.09727028 133.90734119-86.05094035 234.30010511-181.6882586 315.59559875z"  horiz-adv-x="1024" />

    
    <glyph glyph-name="xiazai" unicode="&#58928;" d="M485.47947726 864.80444574c0 40.43243115 60.6183375 40.43243115 60.6183375 0v-714.872052l301.57622824 301.57622822c28.55123726 28.55123726 71.40840131-14.30592785 42.85716511-42.8571651l-342.91793516-342.91793409a36.24976622 36.24976622 0 0 0-5.15255807-4.24328339c-10.72944536-20.00405098-42.61469129-20.00405098-53.34413772 0a36.24976622 36.24976622 0 0 0-5.15255809 4.24328339L141.04608392 408.65145686c-28.55123726 28.55123726 14.30592785 71.40840131 42.85716512 42.85716511L485.47947726 149.93239373999995V864.80444574zM91.46028406-105.08895208000001h844.83776867v60.61833749H91.46028406v-60.61833749z"  horiz-adv-x="1024" />

    
    <glyph glyph-name="xiaoshouzhongxin" unicode="&#59008;" d="M512 896C229.376 896 0 666.624 0 384s229.376-512 512-512 512 229.376 512 512S794.624 896 512 896zM303.104 160.256c0-14.848-14.848-29.696-29.696-29.696s-29.696 14.848-29.696 29.696v183.808c0 14.848 14.848 29.696 29.696 29.696s29.696-14.848 29.696-29.696v-183.808z m159.232 0c0-14.848-14.848-29.696-29.696-29.696s-29.696 14.848-29.696 29.696V438.784c0 14.848 9.728 29.696 29.696 29.696 14.848 0 29.696-14.848 29.696-29.696v-278.528z m159.232 0c0-14.848-14.848-29.696-29.696-29.696s-29.696 14.848-29.696 29.696v183.808c0 14.848 9.728 29.696 29.696 29.696 14.848 0 29.696-14.848 29.696-29.696v-183.808z m158.72 0c0-14.848-14.848-29.696-29.696-29.696s-29.696 14.848-29.696 29.696V468.48c0 14.848 14.848 29.696 29.696 29.696s29.696-14.848 29.696-29.696v-308.224z m-11.776 422.4l-134.144-114.176c-25.088-25.088-69.632-25.088-99.328 0L425.472 558.08c-5.12 5.12-19.968 5.12-25.088 0L286.208 448.512c-5.12-5.12-14.848-9.728-19.968-9.728s-14.848 5.12-19.968 9.728c-9.728 9.728-9.728 29.696 0 39.936l114.176 109.568c29.696 29.696 74.752 29.696 104.448 5.12l114.176-84.48c5.12-5.12 19.968-5.12 25.088 0L673.792 578.56h-34.816c-14.848 0-29.696 14.848-29.696 29.696s14.848 29.696 29.696 29.696h114.176c14.848 0 25.088-9.728 29.696-19.968 5.12-10.24 0.512-25.088-14.336-35.328z"  horiz-adv-x="1024" />

    
    <glyph glyph-name="youbian" unicode="&#58884;" d="M11.0770087 387.55555555c0-270.12229565 222.8224-488.95554783 498.64347826-488.95554783 275.2512 0 498.64347826 218.83325217 498.64347825 488.95554783S785.54156522 876.51110338 509.72048696 876.51110338 11.0770087 657.6778512 11.0770087 387.55555555z m212.5645913-41.03123478c-22.79513043 0-41.60111304 18.23610435-41.60111304 41.03123478s18.80598261 41.03123478 41.60111304 41.03123478h441.65565218L493.19401739 597.27075555c-16.52646957 15.9565913-16.52646957 42.17099131 0 58.12758261 16.52646957 15.9565913 42.74086957 15.9565913 59.26733914 0l235.9296-231.37057392c10.2578087-9.68793044 13.1072-23.3650087 10.82768695-35.90233043 2.27951304-12.53732174-0.56987826-26.2144-10.82768695-35.90233044l-235.9296-231.37057391c-16.52646957-15.9565913-42.74086957-15.9565913-59.26733914 0-16.52646957 15.9565913-16.52646957 42.17099131 0 58.12758261l172.10323479 168.68396522H223.6416v-1.13975652z"  horiz-adv-x="1024" />

    
    <glyph glyph-name="xiangmu" unicode="&#58889;" d="M1016.6272 594.2613333300001L516.9152 880.4352 15.5648 594.2613333300001l500.25813333-286.17386666 500.80426667 286.17386666zM15.5648 451.72053333L16.11093333 394.92266667l500.25813334-286.17386667L1016.6272 394.92266667l-0.54613333 56.79786666-500.25813334-286.17386666L15.5648 451.72053333z m0-214.6304l0.54613333-60.6208 500.25813334-286.17386666 500.25813333 286.17386666-0.54613333 60.6208-500.25813334-286.17386666-500.25813333 286.17386666z"  horiz-adv-x="1024" />

    
    <glyph glyph-name="shiyanshi" unicode="&#58890;" d="M928.64 109.91999999999996L632 603.8399999999999V823.2h30.24c16.32 0 30.24 4.8 30.24 21.12S678.56 864 662.24 864H362.24c-16.32 0-30.24-2.88-30.24-19.68s13.44-21.12 30.24-21.12H392v-219.36L95.36 109.91999999999996C27.68-3.3600000000000136 80-96 212-96h600c132 0 184.32 92.64 116.64 205.92zM236 264L430.4 587.52V823.2h166.08v-235.68L790.4 264H236z"  horiz-adv-x="1024" />

    
    <glyph glyph-name="yingyong" unicode="&#58892;" d="M1012.41277796 702.34039422c-1.717664 12.02364798-9.73342932 22.90218663-22.32963197 26.33751464l-462.62417001 152.2995411c-6.87065599 4.00788266-15.45897598 5.152992-23.4747413 2.86277333L36.20707267 728.10535417c-12.02364798-3.435328-21.18452263-13.16875731-22.90218663-25.19240528-0.57255466-1.717664-0.57255466-3.435328-0.57255467-5.152992v-562.24868188c0-14.88642131 10.87853865-27.48262396 25.1924053-30.34539727l457.47117802-214.13544504c4.00788266-2.86277333 9.16087465-4.58043732 14.31386665-5.152992l-5.152992 1.14510934c1.717664-0.57255466 3.435328-0.57255466 5.72554666-1.14510934h4.00788266c2.86277333 0 5.72554666 0.57255466 8.01576533 1.14510934h-1.14510934c5.152992 1.717664 9.73342932 4.00788266 13.16875732 7.44321066l450.60052202 208.98245304c15.45897598 1.717664 27.48262396 14.88642131 27.48262397 30.91795195V697.75995689c0.57255466 1.717664 0.57255466 2.86277333 0 4.58043733z m-486.09891131-160.31530644L94.60764859 698.90506622 512 838.03585002l432.27877272-137.98567447-417.96490607-158.02508777z m445.44753003-399.0706021l-428.27089006-194.6685864V494.5030505l428.27089006 160.88786111v-512.43642593z"  horiz-adv-x="1024" />

    


  </font>
</defs>
</svg>
